<svg width="26" height="29" viewBox="0 0 26 29" fill="none" xmlns="http://www.w3.org/2000/svg">
<path d="M5.75867 17.4707C5.75867 17.4707 5.75867 24.7121 5.75867 25.6776C5.75867 26.6431 7.6897 26.6431 7.6897 25.6776M7.6897 25.6776C7.6897 24.7121 7.6897 21.3328 7.6897 20.85M7.6897 25.6776C7.6897 26.6431 9.62074 26.6431 9.62074 25.6776C9.62074 24.7121 9.62074 17.4707 9.62074 17.4707M7.6897 20.85C7.6897 20.3673 7.6897 20.3673 7.6897 20.85Z" stroke="#0056B8" stroke-linecap="round"/>
<path d="M5.75867 17.4707C5.75867 17.4707 5.75867 18.919 5.75867 19.8845C5.75867 20.85 3.82764 20.85 3.82764 19.8845C3.82764 18.919 3.82764 17.9535 3.82764 17.4707C3.82764 16.988 4.3104 16.0225 5.27591 16.0225C6.24143 16.0225 9.13798 16.0225 10.1035 16.0225C11.069 16.0225 11.5518 16.988 11.5518 17.4707C11.5518 17.9535 11.5518 18.919 11.5518 19.8845C11.5518 20.85 9.62074 20.85 9.62074 19.8845C9.62074 18.919 9.62074 17.4707 9.62074 17.4707" stroke="#0056B8" stroke-linecap="round"/>
<path d="M9.45868 13.8901C9.45868 14.8671 8.66669 15.6591 7.68971 15.6591C6.71274 15.6591 5.92075 14.8671 5.92075 13.8901C5.92075 12.9132 6.71274 12.1212 7.68971 12.1212C8.66669 12.1212 9.45868 12.9132 9.45868 13.8901Z" stroke="#0056B8"/>
<path d="M16.3795 17.5264C16.3795 17.5264 16.3795 24.7677 16.3795 25.7333C16.3795 26.6988 18.3105 26.6988 18.3105 25.7333M18.3105 25.7333C18.3105 24.7677 18.3105 21.3884 18.3105 20.9057M18.3105 25.7333C18.3105 26.6988 20.2415 26.6988 20.2415 25.7333C20.2415 24.7677 20.2415 17.5264 20.2415 17.5264M18.3105 20.9057C18.3105 20.4229 18.3105 20.4229 18.3105 20.9057Z" stroke="#0056B8" stroke-linecap="round"/>
<path d="M16.3795 17.5264C16.3795 17.5264 16.3795 18.9747 16.3795 19.9402C16.3795 20.9057 14.4484 20.9057 14.4484 19.9402C14.4484 18.9747 14.4484 18.0092 14.4484 17.5264C14.4484 17.0436 14.9312 16.0781 15.8967 16.0781C16.8622 16.0781 19.7588 16.0781 20.7243 16.0781C21.6898 16.0781 22.1726 17.0436 22.1726 17.5264C22.1726 18.0092 22.1726 18.9747 22.1726 19.9402C22.1726 20.9057 20.2415 20.9057 20.2415 19.9402C20.2415 18.9747 20.2415 17.5264 20.2415 17.5264" stroke="#0056B8" stroke-linecap="round"/>
<path d="M20.0795 13.9458C20.0795 14.9228 19.2875 15.7148 18.3105 15.7148C17.3335 15.7148 16.5415 14.9228 16.5415 13.9458C16.5415 12.9688 17.3335 12.1768 18.3105 12.1768C19.2875 12.1768 20.0795 12.9688 20.0795 13.9458Z" stroke="#0056B8"/>
<path d="M10.5862 8.72414H6.72413V4.86207H4.79309L8.65516 1L12.5172 4.86207H10.5862V8.72414Z" stroke="#0056B8" stroke-linecap="round" stroke-linejoin="round"/>
<path d="M20.2414 1.00047H16.3793V4.86254H14.4483L18.3103 8.72461L22.1724 4.86254H20.2414V1.00047Z" stroke="#0056B8" stroke-linecap="round" stroke-linejoin="round"/>
<rect x="1.43103" y="10.1895" width="23.1379" height="18.3103" rx="0.5" stroke="#0056B8"/>
</svg>
